<svg width="234" height="240" viewBox="0 0 234 240" fill="none" xmlns="http://www.w3.org/2000/svg">
<rect y="115" width="10" height="125" fill="#2A82A8"/>
<rect x="39" y="51" width="10" height="39" fill="#2A82A8"/>
<rect x="185" y="51" width="10" height="189" fill="#2A82A8"/>
<rect x="39" y="113" width="10" height="125" fill="#2A82A8"/>
<rect x="194" y="230" width="10" height="155" transform="rotate(90 194 230)" fill="#2A82A8"/>
<rect x="84" y="113" width="10" height="39" transform="rotate(90 84 113)" fill="#2A82A8"/>
<rect x="224" y="115" width="10" height="125" fill="#2A82A8"/>
<rect x="112" y="46.3729" width="9.24387" height="139.672" transform="rotate(-56.855 112 46.3729)" fill="#2A82A8"/>
<rect width="9.24387" height="139.672" transform="matrix(-0.546759 -0.83729 -0.83729 0.546759 122 46.3729)" fill="#2A82A8"/>
<rect x="112" y="7.7398" width="9.24387" height="93.3" transform="rotate(-56.855 112 7.7398)" fill="#2A82A8"/>
<rect width="9.24387" height="93.3012" transform="matrix(-0.546759 -0.83729 -0.83729 0.546759 122 7.7398)" fill="#2A82A8"/>
<path d="M113.59 204.277C112.439 206.579 110.911 207.73 109.008 207.73C107.104 207.73 106.152 206.757 106.152 204.809C106.152 203.613 106.728 202.307 107.879 200.891C110.181 198.146 112.372 194.98 114.453 191.395L117.84 185.352L78.3945 113.035H117.109L136.102 153.078L153.102 122.863C154.341 120.561 155.404 118.237 156.289 115.891C157.174 113.5 158.348 112.305 159.809 112.305C161.624 112.305 162.531 113.212 162.531 115.027C162.531 116.09 162.133 117.307 161.336 118.68L115.914 199.695C115.427 200.581 115.029 201.311 114.719 201.887L113.59 204.277Z" fill="#BF8020"/>
</svg>
